<svg width="32" height="32" viewBox="0 0 32 32" fill="none" xmlns="http://www.w3.org/2000/svg">
<path fill-rule="evenodd" clip-rule="evenodd" d="M7 29.9896C7 30.3447 17.7547 21.4666 17.7547 21.4666L15.6038 20.4012L21.6981 14.0089L19.5472 12.9435L26 6.55127L15.9623 3L12.0189 11.523L14.5283 12.2333L9.15094 19.3358H12.0189C12.0189 19.3358 7 29.6345 7 29.9896ZM16.3208 21.4666L7.35849 29.6345L13.4528 18.6256H10.5849L15.9623 11.8782L13.0943 10.8128L16.3208 4.06538L24.566 6.90639L18.1132 13.2987L20.6226 14.3641L14.5283 20.7563L16.3208 21.4666Z" fill="#30528F"/>
<path d="M7.35849 29.6345L16.3208 21.4666L14.5283 20.7563L20.6226 14.3641L18.1132 13.2987L24.566 6.90639L16.3208 4.06538L13.0943 10.8128L15.9623 11.8782L10.5849 18.6256H13.4528L7.35849 29.6345Z" fill="#FFC002"/>
<path fill-rule="evenodd" clip-rule="evenodd" d="M7 29.9896C7 30.3447 17.7547 21.4666 17.7547 21.4666L15.6038 20.4012L21.6981 14.0089L19.5472 12.9435L26 6.55127L15.9623 3L12.0189 11.523L14.5283 12.2333L9.15094 19.3358H12.0189C12.0189 19.3358 7 29.6345 7 29.9896ZM16.3208 21.4666L7.35849 29.6345L13.4528 18.6256H10.5849L15.9623 11.8782L13.0943 10.8128L16.3208 4.06538L24.566 6.90639L18.1132 13.2987L20.6226 14.3641L14.5283 20.7563L16.3208 21.4666Z" stroke="#30528F"/>
<path d="M7.35849 29.6345L16.3208 21.4666L14.5283 20.7563L20.6226 14.3641L18.1132 13.2987L24.566 6.90639L16.3208 4.06538L13.0943 10.8128L15.9623 11.8782L10.5849 18.6256H13.4528L7.35849 29.6345Z" stroke="#30528F"/>
</svg>
