<svg width="32" height="32" viewBox="0 0 32 32" fill="none" xmlns="http://www.w3.org/2000/svg">
<path d="M8.22989 8.22989C8.53641 7.92337 9.03338 7.92337 9.33991 8.22989L23.7701 22.6601C24.0766 22.9666 24.0766 23.4636 23.7701 23.7701C23.4636 24.0766 22.9666 24.0766 22.6601 23.7701L8.22989 9.33991C7.92337 9.03338 7.92337 8.53641 8.22989 8.22989Z" fill="#D95F02"/>
<path d="M23.7701 8.22989C24.0766 8.53642 24.0766 9.03339 23.7701 9.33991L9.33992 23.7701C9.0334 24.0766 8.53643 24.0766 8.22991 23.7701C7.92339 23.4636 7.92339 22.9666 8.22991 22.6601L22.6601 8.22989C22.9666 7.92337 23.4636 7.92337 23.7701 8.22989Z" fill="#D95F02"/>
</svg>
